<svg width="443" height="405" viewBox="0 0 443 405" fill="none" xmlns="http://www.w3.org/2000/svg">
<rect width="443" height="404" rx="10" fill="#282727"/>
<path d="M239.984 167.254H182.534C179.096 167.254 176.34 169.628 176.34 172.54V313.459L68.8924 169.695C68.3341 168.945 67.5624 168.328 66.6492 167.901C65.7359 167.474 64.7109 167.251 63.6697 167.254H6.19287C2.781 167.254 -0.000976562 169.628 -0.000976562 172.54V398.714C-0.000976562 404 0.000186387 404 2.3814 404L63.6697 404C67.0815 404 69.8897 401.626 69.8897 398.714V294.682L159.574 404C160.703 405.523 180.434 403.978 182.56 403.978H240.011C243.422 403.978 246.204 401.603 246.204 398.691V172.54C246.191 171.138 245.53 169.797 244.366 168.807C243.201 167.818 241.627 167.26 239.984 167.254Z" fill="#84E1FD"/>
<path d="M346.408 4.81006C345.878 3.36448 345.087 2.15631 344.12 1.31551C343.152 0.474714 342.046 0.0331041 340.919 0.03819H282.354C280.332 0.03819 278.415 1.48883 277.26 3.93203L212.76 138.613L148.234 3.89386C147.667 2.69095 146.906 1.70747 146.018 1.02888C145.13 0.35029 144.142 -0.00289283 143.139 1.78458e-05H84.5742C82.2894 1.78458e-05 80.1884 1.83241 79.1117 4.77188C78.0349 7.71135 78.1662 11.2998 79.4268 14.0484L175.494 222.331V392.514C175.494 397.439 178.251 401.409 181.639 401.409H243.907C247.294 401.409 250.052 397.439 250.052 392.514V222.369L346.093 14.0866C347.353 11.338 347.485 7.74952 346.408 4.81006Z" fill="#84E1FD"/>
<path d="M310.67 167.254H196.242C192.961 167.254 190.363 169.494 190.363 172.271V398.422C190.363 401.2 192.987 403.44 196.242 403.44L310.67 404.371C389.799 404.371 442.998 355.974 442.998 285.324C442.998 214.697 389.799 167.254 310.67 167.254ZM307.285 348.246C306.55 348.246 305.868 348.089 305.211 347.888C305.054 347.91 304.923 347.955 304.765 347.955C304.555 347.977 304.398 348.045 304.188 348.045H265.608C262.458 348.045 247.697 347.254 247.697 344.588V225.765C247.697 223.099 262.458 222.627 265.608 222.627H304.188C304.398 222.627 304.555 222.694 304.765 222.716C304.896 222.716 305.054 222.761 305.211 222.783C305.868 222.582 306.55 222.425 307.285 222.425C308.413 222.425 309.542 222.515 310.67 222.559C312.639 222.627 314.607 222.761 316.549 222.963C350.957 226.614 373.475 250.716 373.475 285.324C373.475 319.932 350.93 344.035 316.549 347.686C314.607 347.888 312.639 348.022 310.67 348.089C309.542 348.157 308.413 348.246 307.285 348.246Z" fill="#84E1FD"/>
</svg>
