<svg width="408" height="402" viewBox="0 0 408 402" fill="none" xmlns="http://www.w3.org/2000/svg">
<path d="M229.088 399.805H180.971C180.964 399.798 180.96 399.795 180.959 399.795L180.944 399.795L180.939 399.795H180.935L180.924 399.795H180.887L180.748 399.795L179.49 399.796C178.363 399.798 176.8 399.8 175.644 399.802C175.361 399.802 175.102 399.802 174.88 399.803L67.7803 290.691L65.2098 288.072V291.741V396.028C65.2098 397.961 63.3682 399.827 60.7728 399.827L2.27395 399.827C1.95628 399.827 1.74673 399.824 1.60492 399.819C1.60414 399.814 1.60336 399.809 1.60259 399.804C1.57391 399.619 1.55054 399.366 1.53398 399.02C1.50048 398.319 1.5 397.368 1.5 396.028V169.299C1.5 167.359 3.32527 165.5 5.91195 165.5L60.7728 165.5L60.7765 165.5C61.5455 165.498 62.2958 165.671 62.9557 165.995C63.6151 166.319 64.1536 166.778 64.534 167.315L64.5665 167.361L64.6024 167.404L173.072 298.456L175.932 301.913L175.726 297.431L169.815 169.268C169.835 167.335 171.634 165.5 174.227 165.5H229.06C230.282 165.505 231.424 165.943 232.246 166.676C233.062 167.404 233.489 168.354 233.5 169.308V396.005C233.5 397.946 231.675 399.805 229.088 399.805Z" fill="#84E1FD" stroke="black" stroke-width="3"/>
<path d="M178.482 399.569H178.469C176.145 399.569 174.5 397.882 174.5 396.054V170.015C174.5 168.183 176.125 166.5 178.469 166.5H284.909C321.387 166.5 351.767 178.245 373.019 198.617C394.264 218.983 406.5 248.08 406.5 283.012C406.5 317.958 394.263 347.301 373.012 367.91C351.759 388.521 321.382 400.499 284.916 400.5C284.913 400.5 284.911 400.5 284.909 400.5L178.482 399.569ZM231 342.5V343.355L231.735 343.79C234.866 345.646 236.913 346.538 238.623 346.933C239.999 347.251 241.14 347.23 242.225 347.211C242.483 347.206 242.738 347.201 242.992 347.201H278.879C279.151 347.201 279.371 347.153 279.483 347.127C279.529 347.117 279.557 347.11 279.574 347.106C279.635 347.102 279.692 347.096 279.743 347.088C280.336 347.262 281.013 347.403 281.76 347.403C282.656 347.403 283.561 347.341 284.405 347.283C284.602 347.27 284.796 347.257 284.985 347.244C286.845 347.176 288.707 347.039 290.544 346.834L290.548 346.833C306.883 344.969 320.479 337.87 329.987 326.756C339.49 315.645 344.83 300.615 344.83 283.012C344.83 265.41 339.497 250.38 329.996 239.269C320.492 228.154 306.895 221.055 290.548 219.191L290.544 219.191C288.701 218.985 286.835 218.848 284.969 218.78C284.665 218.767 284.34 218.748 284.004 218.729C283.28 218.688 282.501 218.644 281.76 218.644C281.012 218.644 280.333 218.785 279.739 218.96C279.691 218.953 279.636 218.946 279.577 218.942C279.561 218.938 279.533 218.931 279.483 218.92C279.371 218.894 279.151 218.846 278.879 218.846H242.992H242.931C241.469 218.845 238.78 218.845 236.43 219.189C235.253 219.362 234.03 219.638 233.062 220.117C232.123 220.582 231 221.473 231 223V342.5Z" fill="#84E1FD" stroke="black" stroke-width="3"/>
<path d="M312.688 1.53813L312.681 1.53817L262.56 1.53815C261.731 1.53815 260.483 2.288 259.59 4.49131L259.588 4.49738L204.388 139.041L203 142.423L201.612 139.041L146.39 4.45931L146.387 4.45154C145.965 3.40689 145.431 2.63576 144.883 2.14715C144.345 1.66712 143.844 1.49858 143.422 1.50001L143.417 1.50003L93.297 1.50002C92.3522 1.50002 90.9112 2.48218 90.0533 5.21614C89.231 7.8364 89.3385 11.068 90.2874 13.4842C90.2876 13.4847 90.2877 13.4851 90.2879 13.4855L172.502 221.553L172.607 221.818V222.104V392.114C172.607 394.352 173.147 396.3 173.94 397.637C174.752 399.007 175.66 399.5 176.367 399.5H229.656C230.363 399.5 231.27 399.007 232.083 397.637C232.875 396.3 233.415 394.352 233.415 392.114V222.142V221.857L233.52 221.591L315.712 13.5237L312.688 1.53813ZM312.688 1.53813C313.161 1.53564 313.74 1.74658 314.351 2.367C314.971 2.99619 315.545 3.97492 315.947 5.25427M312.688 1.53813L315.947 5.25427M315.947 5.25427C316.769 7.87408 316.662 11.105 315.713 13.5211L315.947 5.25427Z" fill="#84E1FD" stroke="black" stroke-width="3"/>
</svg>
