<svg width="194" height="178" viewBox="0 0 194 178" fill="none" xmlns="http://www.w3.org/2000/svg">
<path d="M105.094 73.2769H79.9352C78.4296 73.2769 77.2228 74.3171 77.2228 75.5929V137.332L30.169 74.3466C29.9246 74.0179 29.5866 73.7475 29.1867 73.5604C28.7867 73.3734 28.3379 73.2758 27.8819 73.2769H2.71145C1.21732 73.2769 -0.000976562 74.3171 -0.000976562 75.5929V174.684C-0.000976562 177 -0.00046728 177 1.04232 177L27.8819 177C29.376 177 30.6058 175.96 30.6058 174.684V129.106L69.8807 177C70.375 177.667 79.0158 176.99 79.9467 176.99H105.106C106.6 176.99 107.818 175.95 107.818 174.674V75.5929C107.812 74.9786 107.523 74.391 107.013 73.9575C106.503 73.524 105.814 73.2794 105.094 73.2769Z" fill="#84E1FD"/>
<path d="M151.7 2.10738C151.468 1.47404 151.121 0.94472 150.698 0.576351C150.274 0.207981 149.79 0.0145035 149.296 0.0167317H123.649C122.764 0.0167317 121.924 0.652286 121.418 1.7227L93.1721 60.729L64.9146 1.70597C64.6663 1.17895 64.3333 0.748076 63.9445 0.450772C63.5556 0.153469 63.1228 -0.0012674 62.6835 7.81857e-06H37.0367C36.0361 7.81857e-06 35.116 0.802815 34.6445 2.09065C34.173 3.37849 34.2305 4.95065 34.7825 6.15486L76.8525 97.4072V171.968C76.8525 174.125 78.06 175.865 79.5436 175.865H106.812C108.296 175.865 109.503 174.125 109.503 171.968V97.4239L151.562 6.17159C152.114 4.96738 152.171 3.39521 151.7 2.10738Z" fill="#84E1FD"/>
<path d="M136.05 73.2769H85.9388C84.5021 73.2769 83.3643 74.2582 83.3643 75.4752V174.556C83.3643 175.773 84.5136 176.754 85.9388 176.754L136.05 177.162C170.702 177.162 193.999 155.959 193.999 125.006C193.999 94.0627 170.702 73.2769 136.05 73.2769ZM134.567 152.573C134.245 152.573 133.946 152.504 133.659 152.416C133.59 152.426 133.533 152.445 133.464 152.445C133.372 152.455 133.303 152.485 133.211 152.485H116.316C114.936 152.485 108.472 152.138 108.472 150.97V98.9116C108.472 97.7438 114.936 97.5368 116.316 97.5368H133.211C133.303 97.5368 133.372 97.5662 133.464 97.576C133.521 97.576 133.59 97.5957 133.659 97.6055C133.946 97.5172 134.245 97.4485 134.567 97.4485C135.061 97.4485 135.556 97.4877 136.05 97.5073C136.912 97.5368 137.774 97.5957 138.624 97.684C153.692 99.2837 163.553 109.843 163.553 125.006C163.553 140.168 153.681 150.728 138.624 152.328C137.774 152.416 136.912 152.475 136.05 152.504C135.556 152.534 135.061 152.573 134.567 152.573Z" fill="#84E1FD"/>
</svg>
