<svg width="51" height="50" viewBox="0 0 51 50" fill="none" xmlns="http://www.w3.org/2000/svg">
<path d="M28.4935 49.4135H22.5143C22.5133 49.4127 22.5127 49.4123 22.5125 49.4123L22.5075 49.4122L22.5051 49.4122L22.5031 49.4122H22.4982L22.4808 49.4122L22.3243 49.4124L21.8826 49.413L8.65407 35.9359L7.79724 35.063V36.2862V49.2571C7.79724 49.2793 7.78796 49.3133 7.74726 49.3496C7.7058 49.3865 7.6399 49.4163 7.55881 49.4163L0.500208 49.4163C0.500018 49.37 0.5 49.3174 0.5 49.2571V21.0571C0.5 21.0333 0.509879 20.9992 0.549504 20.9637C0.589873 20.9275 0.654473 20.898 0.735317 20.898L7.55881 20.898L7.56002 20.898C7.60869 20.8978 7.65435 20.9089 7.69217 20.9275C7.72986 20.946 7.75544 20.9697 7.77088 20.9915L7.78172 21.0068L7.79366 21.0212L21.2849 37.3212L22.2384 38.4733L22.1695 36.9794L21.435 21.0505C21.4367 21.0261 21.4483 20.9949 21.4836 20.9632C21.5228 20.9279 21.587 20.898 21.67 20.898H28.4893C28.5689 20.8984 28.6358 20.9273 28.6776 20.9647C28.7171 20.9999 28.7282 21.0356 28.7289 21.0604V49.2543C28.7289 49.2781 28.719 49.3122 28.6794 49.3477C28.639 49.3839 28.5744 49.4135 28.4935 49.4135ZM0.509471 49.6812C0.509462 49.6812 0.509369 49.6807 0.509213 49.6798L0.509471 49.6812Z" fill="#84E1FD" stroke="black"/>
<path d="M28.4181 42.8843V42.5995V27.7363C28.4181 27.3663 28.6937 27.1736 28.8489 27.0968C29.0138 27.0151 29.2048 26.9752 29.3615 26.9522C29.6767 26.906 30.0302 26.9061 30.2105 26.9061L30.2231 26.9061H34.6867C34.7225 26.9061 34.7544 26.9094 34.7797 26.9132C34.8568 26.895 34.9463 26.881 35.045 26.881C35.1462 26.881 35.2607 26.8875 35.3546 26.8928C35.3928 26.8949 35.4275 26.8969 35.4566 26.8982L28.4181 42.8843ZM28.4181 42.8843L28.6631 43.0296C29.0624 43.2663 29.3497 43.3963 29.609 43.4562C29.8221 43.5055 30.0108 43.5016 30.146 43.4988C30.1741 43.4982 30.1999 43.4976 30.2231 43.4976H34.6867C34.7225 43.4976 34.7544 43.4943 34.7797 43.4905L28.4181 42.8843ZM22.2021 49.3842L22.2021 49.3842H22.1977C22.1333 49.3842 22.0842 49.3606 22.0544 49.3333C22.0255 49.3068 22.0176 49.2809 22.0176 49.2604V21.1461C22.0176 21.1241 22.026 21.0983 22.0538 21.0727C22.0824 21.0464 22.131 21.0223 22.1977 21.0223H35.4367C39.9057 21.0223 43.6025 22.4603 46.1786 24.9298C48.7529 27.3976 50.2464 30.9316 50.2464 35.2005C50.2464 39.4713 48.7525 43.0367 46.1765 45.5349C43.5998 48.0338 39.9041 49.4995 35.4388 49.5C35.4381 49.5 35.4374 49.5 35.4367 49.5L22.2021 49.3842ZM34.8908 26.9331L34.8908 26.9331L34.8908 26.9331Z" fill="#84E1FD" stroke="black"/>
<path d="M32.577 0.678347L32.5779 0.676322C32.6174 0.578611 32.6598 0.52734 32.6834 0.506369C32.684 0.505796 32.6846 0.505255 32.6852 0.504745H38.8649C38.8678 0.507195 38.8712 0.510363 38.8752 0.514398C38.9089 0.548627 38.9587 0.622677 38.9978 0.747363C39.0794 1.00729 39.067 1.33556 38.9761 1.56727C38.976 1.56732 38.976 1.56737 38.976 1.56743L28.7533 27.4459L28.7184 27.5344V27.6296V48.7704C28.7184 49.0025 28.6617 49.1874 28.5964 49.2975C28.5693 49.3432 28.5485 49.3655 28.5367 49.3756H21.9637C21.9519 49.3655 21.9311 49.3432 21.904 49.2975C21.8387 49.1874 21.782 49.0025 21.782 48.7704V27.6249V27.5297L21.747 27.4411L11.5216 1.56269C11.5216 1.56256 11.5215 1.56243 11.5214 1.5623C11.4305 1.33061 11.4182 1.00246 11.4998 0.74262C11.5394 0.616198 11.5893 0.543062 11.6221 0.509663C11.6261 0.505623 11.6294 0.502455 11.6322 0.500002H17.8106C17.811 0.500306 17.8113 0.50062 17.8117 0.500945C17.8355 0.522167 17.8775 0.573915 17.9167 0.67103L17.9167 0.671033L17.9178 0.673623L24.7862 17.4127L25.2488 18.5401L25.7114 17.4126L32.577 0.678347ZM28.5258 49.383C28.5258 49.3828 28.5272 49.3818 28.5302 49.3806C28.5274 49.3826 28.5258 49.3832 28.5258 49.383ZM21.9746 49.383C21.9745 49.3832 21.973 49.3826 21.9702 49.3806C21.9732 49.3818 21.9746 49.3828 21.9746 49.383ZM11.641 0.49309C11.6417 0.492678 11.642 0.492513 11.642 0.492533C11.642 0.492553 11.6417 0.492759 11.641 0.49309Z" fill="#84E1FD" stroke="black"/>
</svg>
