<?xml version="1.0" encoding="UTF-8"?>
<svg version="1.1" xmlns="http://www.w3.org/2000/svg" width="500" height="500">
<path d="M0 0 C2.9268063 5.8536126 2.7578233 15.88514714 0.875 22.0625 C-1.56745374 27.83754617 -4.71794325 31.68399543 -10.4375 34.375 C-19.47776843 37.58153336 -29.32084527 37.26338094 -38.01171875 33.1953125 C-43.11945466 30.12465005 -45.00201743 25.42309554 -47 20 C-48.29243539 14.71276432 -48.09620253 9.40872026 -48 4 C-39.08500438 2.67613019 -30.16435192 1.67478097 -21.1875 0.875 C-20.23415771 0.78750488 -19.28081543 0.70000977 -18.29858398 0.60986328 C-12.18321278 0.08325157 -6.13694041 -0.10521901 0 0 Z M-26.875 8.9375 C-27.90625 9.02451172 -28.9375 9.11152344 -30 9.20117188 C-35.58593187 9.65713128 -35.58593187 9.65713128 -41 11 C-40.09188207 17.99410615 -40.09188207 17.99410615 -36.625 24 C-30.33905082 28.78929461 -24.7510262 28.60495814 -17 28 C-13.14321408 27.14884725 -10.58609324 25.52439921 -7.625 22.875 C-5.44948188 19.0260064 -4.95881744 15.39829787 -5 11 C-5.495 9.515 -5.495 9.515 -6 8 C-13.01626218 7.89059882 -19.88877767 8.30766794 -26.875 8.9375 Z " fill="#272727" transform="translate(467,217)"/>
<path d="M0 0 C0.33 2.31 0.66 4.62 1 7 C0.45730469 7.29132813 -0.08539063 7.58265625 -0.64453125 7.8828125 C-5.35775874 10.58336447 -8.23968961 12.60171481 -10 18 C-9.67 18.99 -9.34 19.98 -9 21 C-5.81944427 20.69220428 -4.40292951 20.46477873 -2.26953125 18.00390625 C-1.78871094 17.19824219 -1.30789063 16.39257812 -0.8125 15.5625 C0.70134152 13.07404811 1.93497891 11.06502109 4 9 C7 8.75 7 8.75 10 9 C12 11 12 11 12.125 14.125 C12.08375 15.07375 12.0425 16.0225 12 17 C12.58007812 16.95359375 13.16015625 16.9071875 13.7578125 16.859375 C19.39949528 16.59870319 22.59161489 17.11642265 27 21 C29.86782366 24.44138839 30.53876473 27.44464656 30.3515625 31.9375 C29.71347692 35.68093539 28.26712554 37.93631683 26 41 C23.25 42.4375 23.25 42.4375 21 43 C21 44.98 21 46.96 21 49 C19.02 49 17.04 49 15 49 C15 47.68 15 46.36 15 45 C13.948125 44.79375 12.89625 44.5875 11.8125 44.375 C8.33345226 43.35175066 6.13559758 41.828756 3.953125 38.82421875 C2.0878741 35.25425085 1.53603281 31.99774466 2 28 C3.34768551 24.46047432 5.04546854 21.23951754 7 18 C6.67 17.67 6.34 17.34 6 17 C5.41992188 17.92232422 5.41992188 17.92232422 4.828125 18.86328125 C4.30734375 19.67152344 3.7865625 20.47976563 3.25 21.3125 C2.73953125 22.11300781 2.2290625 22.91351563 1.703125 23.73828125 C-0.04231232 26.05618998 -1.52421407 27.49938023 -4 29 C-8.87541421 29.61910022 -10.86023598 29.7360976 -15 27.0625 C-17.7315658 22.87978986 -17.8531198 19.85872037 -17 15 C-15.02128905 8.24042843 -10.83840366 4.6521616 -5 1 C-3 0 -3 0 0 0 Z M10.0625 25.125 C8.47009717 27.93512264 8.54680675 29.82764724 9 33 C10.96399996 35.69140735 12.35882463 36.77558862 15.5 37.875 C18.35333018 38.01766651 19.65288569 37.59268471 22 36 C23.42041821 33.15916359 23.31452272 31.14522722 23 28 C21.56338689 25.47993156 21.56338689 25.47993156 19 24 C15.51143969 23.57158031 13.15097604 23.33169133 10.0625 25.125 Z " fill="#2A2A2A" transform="translate(386,342)"/>
<path d="M0 0 C1.32 1.65 2.64 3.3 4 5 C2.50091503 8.99025977 0.29101351 10.37275373 -3.3046875 12.53125 C-4.36300781 13.17707031 -5.42132813 13.82289063 -6.51171875 14.48828125 C-7.62160156 15.15214844 -8.73148437 15.81601563 -9.875 16.5 C-12.06293731 17.81788037 -14.24795466 19.14062345 -16.4296875 20.46875 C-17.40147949 21.05076172 -18.37327148 21.63277344 -19.37451172 22.23242188 C-23.36521502 24.91911445 -25.65392292 26.7310507 -26.9375 31.4375 C-27.00698608 35.39820668 -26.43366566 36.93538398 -24 40 C-20.8830193 41.55849035 -18.45297656 41.27920691 -15 41 C-12.44160294 39.78267497 -10.28175804 38.59676933 -7.9375 37.0625 C-7.29917236 36.66297119 -6.66084473 36.26344238 -6.00317383 35.85180664 C-3.99017073 34.58555079 -1.99361955 33.2965295 0 32 C1.00063477 31.3517627 1.00063477 31.3517627 2.02148438 30.69042969 C2.67955078 30.26407227 3.33761719 29.83771484 4.015625 29.3984375 C4.65363037 28.98585693 5.29163574 28.57327637 5.94897461 28.14819336 C7.17264088 27.35320305 8.39236552 26.5521059 9.60766602 25.74438477 C13.78406376 23 13.78406376 23 16 23 C19 27.38461538 19 27.38461538 19 30 C17.13916016 31.41699219 17.13916016 31.41699219 14.5390625 33.046875 C13.59160156 33.645 12.64414062 34.243125 11.66796875 34.859375 C10.66378906 35.48328125 9.65960938 36.1071875 8.625 36.75 C7.65949219 37.3584375 6.69398438 37.966875 5.69921875 38.59375 C3.75974583 39.81210346 1.81571116 41.02322525 -0.1328125 42.22705078 C-2.02112724 43.39470589 -3.90162931 44.57510616 -5.7734375 45.76904297 C-6.6396875 46.31189941 -7.5059375 46.85475586 -8.3984375 47.4140625 C-9.16075684 47.8982666 -9.92307617 48.3824707 -10.70849609 48.88134766 C-14.75785454 50.85813866 -18.63790012 50.85575918 -23 50 C-28.84481443 47.41479362 -32.16541462 42.57713877 -35 37 C-36.35470284 32.92083922 -36.15546511 29.63296509 -35.125 25.4375 C-30.85257335 16.95689371 -19.17583876 11.81558451 -11.4375 7.0625 C-9.78137695 6.03672852 -9.78137695 6.03672852 -8.09179688 4.99023438 C-5.39732363 3.32222713 -2.70006033 1.65894215 0 0 Z " fill="#2B2B2B" transform="translate(425,119)"/>
<path d="M0 0 C2.31 0.66 4.62 1.32 7 2 C6.34941665 6.00707558 5.09647073 9.42356363 3.49609375 13.1484375 C3.00302734 14.31890625 2.50996094 15.489375 2.00195312 16.6953125 C0.96119619 19.14323519 -0.08565938 21.58857418 -1.13867188 24.03125 C-1.63044922 25.20429687 -2.12222656 26.37734375 -2.62890625 27.5859375 C-3.08338135 28.6486084 -3.53785645 29.7112793 -4.00610352 30.80615234 C-5.12732531 34.40915494 -5.32921664 37.24743807 -5 41 C-2.05270356 44.19992185 0.63475845 45.78173792 5 46 C8.29712085 45.12670853 9.65861627 44.5364916 11.51391602 41.62084961 C11.92311279 40.64124268 12.33230957 39.66163574 12.75390625 38.65234375 C13.21603516 37.57146484 13.67816406 36.49058594 14.15429688 35.37695312 C14.61900391 34.24193359 15.08371094 33.10691406 15.5625 31.9375 C16.03107422 30.82955078 16.49964844 29.72160156 16.98242188 28.58007812 C17.90106034 26.40746603 18.81351409 24.23222668 19.71923828 22.05419922 C21.41625117 18.00737664 23.19364371 13.99900583 25 10 C27.31 10.99 29.62 11.98 32 13 C29.69600068 20.20564494 27.0055508 27.19373026 24.125 34.1875 C23.70347656 35.24130859 23.28195312 36.29511719 22.84765625 37.38085938 C17.70773716 49.85341533 17.70773716 49.85341533 11.625 53.375 C4.30443439 55.11799181 -1.48431875 53.41770083 -8 50 C-12.40136885 46.31722198 -13.74091736 44.03782649 -14.46484375 38.34375 C-14.37601683 30.65165076 -10.52705351 23.46434793 -7.5625 16.5 C-6.94326525 15.00839136 -6.32541406 13.51620756 -5.70898438 12.0234375 C-1.21607716 1.21607716 -1.21607716 1.21607716 0 0 Z " fill="#2C2C2C" transform="translate(318,43)"/>
<path d="M0 0 C10.3038981 2.50588245 20.21029142 6.13820096 30.1875 9.6875 C31.91979437 10.30049064 33.65221532 10.91312372 35.38476562 11.52539062 C39.59131405 13.01280954 43.79612105 14.50505388 48 16 C47.34 18.31 46.68 20.62 46 23 C45.34 23 44.68 23 44 23 C44.1546875 24.7325 44.1546875 24.7325 44.3125 26.5 C44.28505549 31.65041949 42.5222177 35.27260457 39 39 C34.3828435 42.09148739 29.61627873 42.45777373 24.23046875 41.55859375 C17.15723956 39.78718959 12.87366814 36.81814269 9.0703125 30.5 C7.25931832 26.2699406 7.09938014 22.48833504 8 18 C9.10213475 15.36241256 10.35352514 13.36680761 12 11 C11.40832031 10.87882813 10.81664062 10.75765625 10.20703125 10.6328125 C5.96196415 9.73255357 1.97560339 8.79543379 -2 7 C-1.34 4.69 -0.68 2.38 0 0 Z M19 14 C14.56693597 18.33733516 14.56693597 18.33733516 14 24 C16.06764696 28.44544097 18.28970304 31.27787462 22.8125 33.1875 C26.15008717 34.03825751 28.57991323 34.43660682 32 34 C35.34201929 31.87326045 37.8623933 29.8678628 39 26 C38.67 24.02 38.34 22.04 38 20 C31.73 18.02 25.46 16.04 19 14 Z " fill="#2B2B2B" transform="translate(45,166)"/>
<path d="M0 0 C6.57552777 1.87483254 12.9441777 4.02986347 19.2890625 6.57421875 C20.11836273 6.90291458 20.94766296 7.23161041 21.80209351 7.57026672 C24.41129518 8.60545369 27.01816834 9.64636129 29.625 10.6875 C31.41000438 11.39686664 33.19515941 12.10585434 34.98046875 12.81445312 C39.32206319 14.53860077 43.66158146 16.26787733 48 18 C48 21.51716303 47.17554415 22.37121748 45 25 C41.10603294 24.31282934 37.82999978 23.27666659 34 22 C30.7 25.63 27.4 29.26 24 33 C24.66 34.65 25.32 36.3 26 38 C26.67795528 39.99620166 27.34733531 41.99538701 28 44 C25.03 46.475 25.03 46.475 22 49 C15.60892934 37.40817269 9.86549985 25.54109223 4.23632812 13.56298828 C3.08348625 11.1730724 1.85550608 8.83820032 0.609375 6.49609375 C-1 3 -1 3 0 0 Z M11 11 C12.512893 14.78223249 14.0736938 18.18633353 16 21.75 C16.515625 22.71421875 17.03125 23.6784375 17.5625 24.671875 C18.78791165 27.11316034 18.78791165 27.11316034 21 28 C22.17260611 26.71372289 23.3379283 25.42080217 24.5 24.125 C25.1496875 23.40570313 25.799375 22.68640625 26.46875 21.9453125 C28.20617272 20.15068902 28.20617272 20.15068902 28 18 C19.585 14.535 19.585 14.535 11 11 Z " fill="#2C2C2C" transform="translate(86,104)"/>
<path d="M0 0 C0.66 0 1.32 0 2 0 C3.40093787 4.90328253 3.40093787 4.90328253 3 8 C1.23167171 10.34775625 -0.68983057 12.13609626 -2.921875 14.04296875 C-5.17282977 16.16275886 -6.52494516 18.29728876 -8 21 C-6.19402344 21.41572266 -6.19402344 21.41572266 -4.3515625 21.83984375 C-2.77601093 22.20559679 -1.20049177 22.57148945 0.375 22.9375 C1.1690625 23.11990234 1.963125 23.30230469 2.78125 23.49023438 C3.54179687 23.66748047 4.30234375 23.84472656 5.0859375 24.02734375 C6.1385376 24.27085571 6.1385376 24.27085571 7.21240234 24.51928711 C9 25 9 25 11 26 C11.40729228 28.32156597 11.74438677 30.6568787 12 33 C10.72125 32.72285156 9.4425 32.44570312 8.125 32.16015625 C6.41670477 31.79409299 4.70836927 31.42821757 3 31.0625 C2.16082031 30.88009766 1.32164062 30.69769531 0.45703125 30.50976562 C-1.2207154 30.15210645 -2.90228846 29.81194245 -4.5871582 29.48950195 C-7 29 -7 29 -9.15307617 28.36010742 C-11.44240725 27.69254686 -11.44240725 27.69254686 -15 28 C-17.99331255 30.30991317 -20.08843733 33.15291175 -22.3125 36.1875 C-23.22225586 37.36022461 -23.22225586 37.36022461 -24.15039062 38.55664062 C-26.3559625 41.41248011 -28.51030156 44.29409882 -30.56713867 47.2590332 C-31.03998291 47.83355225 -31.51282715 48.40807129 -32 49 C-32.66 49 -33.32 49 -34 49 C-35.18215928 46.04129967 -35.93457048 44.12459324 -36 41 C-34.39252482 37.84762051 -32.09087832 35.51080322 -29.625 33 C-28.9959375 32.32066406 -28.366875 31.64132813 -27.71875 30.94140625 C-26.16690273 29.2719948 -24.59531374 27.6277414 -23 26 C-27.41365152 24.43824639 -31.79236127 23.3261137 -36.375 22.375 C-37.62023437 22.11460937 -38.86546875 21.85421875 -40.1484375 21.5859375 C-41.08945312 21.39257812 -42.03046875 21.19921875 -43 21 C-43.66 18.69 -44.32 16.38 -45 14 C-40.10035739 14.39513247 -35.3934387 14.87187712 -30.609375 16.015625 C-22.3473052 18.24537933 -22.3473052 18.24537933 -14.30859375 16.6953125 C-12.22142854 14.59589388 -10.63977563 12.4616583 -9 10 C-7.7256785 8.52648596 -6.43451595 7.0673269 -5.125 5.625 C-4.57070313 4.97789062 -4.01640625 4.33078125 -3.4453125 3.6640625 C-2.34597202 2.39833536 -1.1854566 1.1854566 0 0 Z " fill="#2F2F2F" transform="translate(451,166)"/>
<path d="M0 0 C4.5574713 4.14315573 7.27850193 8.34301293 8.19921875 14.5078125 C8.43524272 21.00254097 7.8805436 25.41625403 3.75 30.5 C-0.5927708 34.0841602 -5.61888569 35.77712177 -11.25 35.5 C-16.41383765 33.95084871 -19.44336618 32.14174055 -22.25 27.5 C-22.58 25.52 -22.91 23.54 -23.25 21.5 C-16.65 18.2 -10.05 14.9 -3.25 11.5 C-3.25 10.51 -3.25 9.52 -3.25 8.5 C-6.14742068 5.9647569 -8.4859345 5.23076155 -12.25 5.4375 C-15.57583701 5.9792083 -17.09924085 6.98403307 -19.25 9.5625 C-19.91 10.531875 -20.57 11.50125 -21.25 12.5 C-23.725 11.51 -23.725 11.51 -26.25 10.5 C-26.25 6.5 -26.25 6.5 -24.0625 3.9375 C-16.53044011 -2.59028524 -9.22324539 -4.25688249 0 0 Z M-0.25 16.5 C-2.69332726 17.57518118 -5.01754523 18.69808566 -7.375 19.9375 C-8.36306641 20.44506836 -8.36306641 20.44506836 -9.37109375 20.96289062 C-11.00106547 21.80149926 -12.62601909 22.64984811 -14.25 23.5 C-14.25 24.49 -14.25 25.48 -14.25 26.5 C-10.70870816 28.86086122 -9.42249782 29.07269578 -5.25 28.5 C-1.39813593 26.02899286 0.44244542 24.66431376 1.625 20.1875 C1.66625 19.300625 1.7075 18.41375 1.75 17.5 C1.09 17.17 0.43 16.84 -0.25 16.5 Z " fill="#2F2F2F" transform="translate(342.25,405.5)"/>
<path d="M0 0 C1.33333333 8 2.66666667 16 4 24 C8.70842624 21.88673474 8.70842624 21.88673474 12 18 C12.36779344 14.02783084 12.46266152 11.76517098 10.375 8.3125 C9.694375 7.1678125 9.694375 7.1678125 9 6 C9.8125 3.6875 9.8125 3.6875 11 2 C12.32 2 13.64 2 15 2 C18.66644133 5.93802958 19.17170625 9.64236783 19.25 14.875 C19.27578125 15.90367187 19.3015625 16.93234375 19.328125 17.9921875 C18.80324422 22.80359465 16.67286439 25.32713561 13.3125 28.6875 C8.49989247 32.44512706 3.37515374 33.27837168 -2.625 32.875 C-8.3978029 32.01056996 -11.79797811 29.59186682 -15.3125 24.9375 C-17.91066406 20.41476998 -18.34544517 17.18167761 -18 12 C-16.32880836 6.81051018 -14.54193631 4.02795754 -10 1 C-6.78548731 -0.60725635 -3.56387464 -0.05748185 0 0 Z M-6 7 C-9.0991054 9.06607026 -10.75879961 10.30654888 -12 13.875 C-12 17.72091174 -11.05268165 19.7743574 -9 23 C-6.18490007 25.2773501 -6.18490007 25.2773501 -3 25 C-3.33 19.39 -3.66 13.78 -4 8 C-4.66 7.67 -5.32 7.34 -6 7 Z " fill="#2A2A2A" transform="translate(61,258)"/>
<path d="M0 0 C4.33460571 2.49217577 7.37862946 5.88225892 9.625 10.375 C10.18213132 16.33201945 10.14680186 21.32708399 6.625 26.375 C2.50728279 30.58630169 -0.45076003 32.26921 -6.375 32.375 C-8.38895236 31.75175018 -10.39203944 31.09075964 -12.375 30.375 C-11.90057748 26.77019219 -11.41964879 23.16628188 -10.9375 19.5625 C-10.80279297 18.53833984 -10.66808594 17.51417969 -10.52929688 16.45898438 C-10.39716797 15.47607422 -10.26503906 14.49316406 -10.12890625 13.48046875 C-10.00845947 12.57449951 -9.8880127 11.66853027 -9.76391602 10.73510742 C-9.375 8.375 -9.375 8.375 -8.375 5.375 C-14.52830522 6.88284953 -14.52830522 6.88284953 -19.4375 10.625 C-21.01461351 15.25119963 -20.86045298 19.73295944 -19.375 24.375 C-21.355 25.035 -23.335 25.695 -25.375 26.375 C-28.23963725 20.06366772 -28.44148322 13.57444967 -26.25 7 C-20.03065888 -1.70707757 -9.92732944 -4.55711695 0 0 Z M-3.375 7.375 C-3.71348652 9.26992006 -4.04556911 11.16598466 -4.375 13.0625 C-4.560625 14.11824219 -4.74625 15.17398437 -4.9375 16.26171875 C-5.32568074 19.02404062 -5.45759976 21.59242043 -5.375 24.375 C-1.74135898 24.13275727 0.0592157 23.99553762 2.5625 21.25 C3.95905279 17.47109244 3.68010399 15.24371463 2.625 11.375 C0.832809 8.91327847 0.832809 8.91327847 -1.375 7.375 C-2.035 7.375 -2.695 7.375 -3.375 7.375 Z " fill="#2C2C2C" transform="translate(445.375,264.625)"/>
<path d="M0 0 C2.31 0.66 4.62 1.32 7 2 C4.80231924 11.2046813 2.26669904 20.29599972 -0.38891602 29.37670898 C-1.0719135 31.71979386 -1.7438935 34.065885 -2.41601562 36.41210938 C-2.85088994 37.90384207 -3.286412 39.39538611 -3.72265625 40.88671875 C-3.92166031 41.58762131 -4.12066437 42.28852386 -4.32569885 43.01066589 C-4.82449968 44.69251404 -5.40507752 46.34970224 -6 48 C-10.04223807 50.02111903 -15.48128177 47.0592291 -19.6315918 45.82226562 C-21.5545214 45.25236463 -23.48270798 44.7037795 -25.41210938 44.15625 C-26.61802734 43.80046875 -27.82394531 43.4446875 -29.06640625 43.078125 C-30.17959229 42.75231445 -31.29277832 42.42650391 -32.43969727 42.09082031 C-33.70704712 41.55086426 -33.70704712 41.55086426 -35 41 C-36 38 -36 38 -35.0625 35.8125 C-34.711875 35.214375 -34.36125 34.61625 -34 34 C-26.37095996 35.28275895 -19.3033339 37.45232539 -12 40 C-11.01 36.04 -10.02 32.08 -9 28 C-11.041875 27.566875 -11.041875 27.566875 -13.125 27.125 C-16.84302258 26.30268853 -20.41166665 25.28811966 -24 24 C-23.67 21.69 -23.34 19.38 -23 17 C-17.72 18.32 -12.44 19.64 -7 21 C-6.57847656 19.56785156 -6.15695313 18.13570313 -5.72265625 16.66015625 C-5.16943924 14.7942209 -4.61604466 12.92833818 -4.0625 11.0625 C-3.78470703 10.11697266 -3.50691406 9.17144531 -3.22070312 8.19726562 C-2.81948242 6.84858398 -2.81948242 6.84858398 -2.41015625 5.47265625 C-2.16402588 4.64000244 -1.91789551 3.80734863 -1.66430664 2.94946289 C-1 1 -1 1 0 0 Z " fill="#2B2B2B" transform="translate(207,418)"/>
<path d="M0 0 C4.33612708 2.26682566 6.91961457 4.90283956 8.92578125 9.31640625 C9.78400981 15.173595 9.7160333 20.66796773 6.3359375 25.68359375 C2.38692837 30.25613064 -1.88983418 34.83022061 -8.125 35.5546875 C-14.9712447 35.77934838 -18.26616663 33.82088517 -23.38671875 29.25390625 C-26.42891258 25.76101704 -26.42261639 22.14243742 -26.34375 17.71875 C-25.53034092 10.46879952 -21.30181931 6.15587162 -15.87890625 1.6640625 C-11.32000201 -1.74031404 -5.33564527 -1.75845183 0 0 Z M-9.13671875 6.19140625 C-13.23763875 9.15802923 -16.79121096 12.75039066 -19.07421875 17.31640625 C-19.42941778 21.15255582 -19.62146469 23.46270259 -17.51171875 26.75390625 C-13.9797234 29.01800583 -12.21280441 29.07514695 -8.07421875 28.31640625 C-2.51856923 24.8441253 1.30434701 20.68632648 2.92578125 14.31640625 C2.76714857 11.00697221 2.76714857 11.00697221 0.92578125 8.31640625 C-2.84514887 5.92331598 -4.77612957 4.94552363 -9.13671875 6.19140625 Z " fill="#2C2C2C" transform="translate(140.07421875,382.68359375)"/>
<path d="M0 0 C4.27055734 3.11426925 7.22539489 6.57991167 10.375 10.75 C14.41193045 15.99821453 18.54101825 21.09968558 23 26 C22.15234375 27.9765625 22.15234375 27.9765625 21 30 C20.195625 30.12375 19.39125 30.2475 18.5625 30.375 C17.716875 30.58125 16.87125 30.7875 16 31 C14.94773272 32.97300116 13.95211112 34.97676387 13 37 C10.27287187 39.80288169 8.38336957 40.88640902 4.625 42 C0.04022906 42 -2.59829988 40.92982868 -6 38 C-9.21240479 34.48942104 -12.12359257 30.78831196 -15 27 C-15.6290625 26.17628906 -16.258125 25.35257812 -16.90625 24.50390625 C-18.28528011 22.6792933 -19.65071888 20.84666318 -21 19 C-20.25 17.0625 -20.25 17.0625 -19 15 C-16.921875 14.37109375 -16.921875 14.37109375 -15 14 C-14.19175781 14.95261719 -13.38351562 15.90523438 -12.55078125 16.88671875 C-11.47146595 18.15374106 -10.39203259 19.42066281 -9.3125 20.6875 C-8.51682617 21.62625977 -8.51682617 21.62625977 -7.70507812 22.58398438 C-2.48371451 29.51258474 -2.48371451 29.51258474 4.625 33.5 C7.46174232 32.90279109 8.35919954 32.37916067 10 30 C11.16505626 27.83677142 11.16505626 27.83677142 11 25 C9.24049226 22.06159063 7.00781442 19.56548305 4.75 17 C3.55451059 15.60654783 2.36172453 14.21077106 1.171875 12.8125 C0.61435547 12.15894531 0.05683594 11.50539063 -0.51757812 10.83203125 C-2.25894465 8.67998672 -3.68699673 6.43571621 -5 4 C-3.35 2.68 -1.7 1.36 0 0 Z " fill="#303030" transform="translate(368,376)"/>
<path d="M0 0 C0.99 0.33 1.98 0.66 3 1 C4.1875 3.5625 4.1875 3.5625 5 6 C-0.19348831 10.7269338 -5.4244584 15.19057625 -11.15234375 19.26171875 C-13.37004959 21.3481439 -14.15424787 23.09360318 -15 26 C-14.23747113 28.66885103 -13.4287084 29.68955599 -11.1875 31.3125 C-8.26150483 32.23209848 -6.94332503 31.93274385 -4 31 C-1.69221234 29.26562837 0.42389826 27.54457348 2.5625 25.625 C3.68801304 24.63712113 4.81429626 23.65011896 5.94140625 22.6640625 C6.46621582 22.20161133 6.99102539 21.73916016 7.53173828 21.26269531 C9.29034963 19.75030125 11.11693019 18.3536003 13 17 C16.47899158 18.39159663 17.48052501 19.63251488 19 23 C10.04617122 30.06104038 1.05341264 37.06707105 -8 44 C-9.32 43.34 -10.64 42.68 -12 42 C-11.67 40.35 -11.34 38.7 -11 37 C-11.721875 36.938125 -12.44375 36.87625 -13.1875 36.8125 C-17.93205578 35.44185055 -20.33669536 31.99495696 -23 28 C-23.32590568 23.53759917 -22.76541031 19.98068196 -20 16.4375 C-19.01 15.633125 -18.02 14.82875 -17 14 C-15.56066143 12.68951651 -14.12333453 11.37682176 -12.6875 10.0625 C-9.71774532 7.45466868 -6.72364117 4.89130424 -3.625 2.4375 C-2.99851562 1.94121094 -2.37203125 1.44492187 -1.7265625 0.93359375 C-1.15679687 0.62550781 -0.58703125 0.31742187 0 0 Z " fill="#303030" transform="translate(106,348)"/>
<path d="M0 0 C-0.33 2.64 -0.66 5.28 -1 8 C-1.86165771 7.90912109 -1.86165771 7.90912109 -2.74072266 7.81640625 C-5.36849207 7.54108082 -7.99673002 7.27050345 -10.625 7 C-11.52863281 6.90460938 -12.43226562 6.80921875 -13.36328125 6.7109375 C-22.06637443 5.35881931 -22.06637443 5.35881931 -30 8 C-31.42127609 12.04517041 -30.66045512 14.17261889 -29 18 C-28.2886792 18.08564209 -27.5773584 18.17128418 -26.84448242 18.25952148 C-23.62508937 18.64896207 -20.40629819 19.0431743 -17.1875 19.4375 C-16.06794922 19.57220703 -14.94839844 19.70691406 -13.79492188 19.84570312 C-12.72177734 19.97783203 -11.64863281 20.10996094 -10.54296875 20.24609375 C-9.55321045 20.36654053 -8.56345215 20.4869873 -7.54370117 20.61108398 C-5 21 -5 21 -2 22 C-2.33 24.31 -2.66 26.62 -3 29 C-27.77626887 27.02501099 -27.77626887 27.02501099 -39 25 C-38.34 23.02 -37.68 21.04 -37 19 C-36.34 19 -35.68 19 -35 19 C-35.515625 18.195625 -36.03125 17.39125 -36.5625 16.5625 C-38.38836717 12.03752483 -38.43289126 8.65904166 -37 4 C-28.36680975 -6.62546493 -12.10129982 -1.50593953 0 0 Z " fill="#2B2B2B" transform="translate(81,219)"/>
<path d="M0 0 C2.475 0.99 2.475 0.99 5 2 C5 6 5 6 3 8.4375 C0.7602143 11.30722542 0.59614086 12.46623252 1 16 C2.73140386 16.86564854 2.73140386 16.86564854 5 17 C7.61538616 15.39547038 7.61538616 15.39547038 10.125 13.125 C14.61879888 9.29793686 16.83021196 7.55246288 22.95703125 7.6640625 C25 8 25 8 28 10 C30.08166627 13.12249941 30.67518098 15.11584634 30.42578125 18.87109375 C29.68302173 22.58489133 28.29794597 25.9786266 26 29 C23.859375 30.2265625 23.859375 30.2265625 22 31 C20.68 30.01 19.36 29.02 18 28 C19.15173355 25.53199953 20.04783565 23.95216435 22 22 C22.16681109 18.91652174 22.16681109 18.91652174 22 16 C17.56378137 16.4894602 15.74823497 17.88985516 12.6875 21.0625 C7.82216809 25.57972996 7.82216809 25.57972996 3.75 25.6875 C0.0039195 25.00071857 -2.11363626 24.46189849 -5 22 C-7.47587841 18.17364246 -7.15302314 14.57230586 -6.55078125 10.21875 C-5.49884417 5.98115949 -3.02674646 3.02674646 0 0 Z " fill="#313131" transform="translate(416,300)"/>
<path d="M0 0 C0.97066406 -0.00257812 1.94132813 -0.00515625 2.94140625 -0.0078125 C5.4375 0.125 5.4375 0.125 7.4375 1.125 C7.1075 3.435 6.7775 5.745 6.4375 8.125 C5.49777344 7.99931641 5.49777344 7.99931641 4.5390625 7.87109375 C3.31316406 7.71833984 3.31316406 7.71833984 2.0625 7.5625 C0.84433594 7.40587891 0.84433594 7.40587891 -0.3984375 7.24609375 C-2.61149186 6.94262672 -2.61149186 6.94262672 -4.5625 8.125 C-4.5625 9.445 -4.5625 10.765 -4.5625 12.125 C-3.67046875 12.42792969 -2.7784375 12.73085938 -1.859375 13.04296875 C-0.68890625 13.46191406 0.4815625 13.88085938 1.6875 14.3125 C2.84765625 14.71855469 4.0078125 15.12460937 5.203125 15.54296875 C8.7784964 17.29179172 10.34060729 18.77098958 12.4375 22.125 C13.4981347 26.24275824 12.88096929 29.36945973 10.75 33 C6.76231581 36.66435845 3.07594631 37.39242552 -2.25 37.3125 C-3.20261719 37.30605469 -4.15523437 37.29960938 -5.13671875 37.29296875 C-7.5625 37.125 -7.5625 37.125 -9.5625 36.125 C-9.2325 33.815 -8.9025 31.505 -8.5625 29.125 C-7.87542969 29.22039062 -7.18835938 29.31578125 -6.48046875 29.4140625 C-5.57941406 29.52492188 -4.67835938 29.63578125 -3.75 29.75 C-2.85667969 29.86601563 -1.96335938 29.98203125 -1.04296875 30.1015625 C1.69440391 30.36000743 1.69440391 30.36000743 4.4375 28.125 C4.48039755 26.19390419 4.48039755 26.19390419 3.4375 24.125 C1.09348495 22.97597302 -1.12974308 22.02731353 -3.5625 21.125 C-8.12194284 19.15818152 -10.95769422 17.43294802 -13.5625 13.125 C-14.15522341 10.02966662 -14.20255599 8.17547357 -12.5390625 5.4453125 C-8.73936926 0.63236773 -5.88673331 -0.01567705 0 0 Z " fill="#2A2A2A" transform="translate(220.5625,46.875)"/>
<path d="M0 0 C4.03594015 3.82352224 6.6483443 6.30397295 7.375 11.875 C6.88020782 15.99826816 5.61937292 17.76239 3 21 C0.26420541 22.92021542 -2.63140072 24.39829163 -5.625 25.875 C-6.40101562 26.2771875 -7.17703125 26.679375 -7.9765625 27.09375 C-13.67044005 30 -13.67044005 30 -16 30 C-15.67 31.65 -15.34 33.3 -15 35 C-16.65 35.66 -18.3 36.32 -20 37 C-20.495 35.515 -20.495 35.515 -21 34 C-21.721875 34.350625 -22.44375 34.70125 -23.1875 35.0625 C-26.39777387 36.13259129 -27.84214433 36.16342051 -31 35 C-32.8125 32.9375 -32.8125 32.9375 -34 31 C-31.69 29.68 -29.38 28.36 -27 27 C-27.66 24.03 -28.32 21.06 -29 18 C-27.35 17.34 -25.7 16.68 -24 16 C-22.68 18.31 -21.36 20.62 -20 23 C-17.39202649 21.73652837 -14.78876593 20.46464776 -12.1875 19.1875 C-11.08051758 18.65286133 -11.08051758 18.65286133 -9.95117188 18.10742188 C-9.23896484 17.75615234 -8.52675781 17.40488281 -7.79296875 17.04296875 C-6.81106567 16.56380005 -6.81106567 16.56380005 -5.80932617 16.07495117 C-3.84571092 14.90833425 -2.44932086 13.7660505 -1 12 C-1.26134215 8.602552 -2.35608156 5.95905318 -4 3 C-2.68 2.01 -1.36 1.02 0 0 Z " fill="#313131" transform="translate(91,320)"/>
<path d="M0 0 C0.66 0 1.32 0 2 0 C5 5.75 5 5.75 5 8 C5.55429688 7.71125 6.10859375 7.4225 6.6796875 7.125 C7.76636719 6.568125 7.76636719 6.568125 8.875 6 C9.59429687 5.62875 10.31359375 5.2575 11.0546875 4.875 C13 4 13 4 15 4 C15.66 5.98 16.32 7.96 17 10 C11.25 13 11.25 13 9 13 C10.26587358 15.58587003 11.53745849 18.16865501 12.8125 20.75 C13.16892578 21.47960937 13.52535156 22.20921875 13.89257812 22.9609375 C15.67530517 26.55910218 17.41088339 29.89632709 20 33 C23.93075644 32.42547254 23.93075644 32.42547254 27 30 C27.99 30 28.98 30 30 30 C32 33 32 33 32 36 C23.75976981 41.5125614 23.75976981 41.5125614 18.75 41.1875 C13.70223797 39.58904202 11.37921604 36.55117111 8.93261719 32.02563477 C7.57903554 29.20124518 6.29025948 26.35356292 5.0390625 23.48242188 C3.98378761 21.11679394 3.98378761 21.11679394 2 18 C-0.61665991 16.89781482 -0.61665991 16.89781482 -3 17 C-3.33 15.68 -3.66 14.36 -4 13 C-3.01 12.67 -2.02 12.34 -1 12 C-1.99 9.69 -2.98 7.38 -4 5 C-2.71937515 3.2925002 -1.38232443 1.62626404 0 0 Z " fill="#2F2F2F" transform="translate(151,59)"/>
<path d="M0 0 C0 2.97 0 5.94 0 9 C1.27875 8.979375 2.5575 8.95875 3.875 8.9375 C7.75 8.875 7.75 8.875 10 10 C10 11.65 10 13.3 10 15 C6.7 15 3.4 15 0 15 C0.08662285 18.62621154 0.19345801 22.24983435 0.3125 25.875 C0.33505859 26.90753906 0.35761719 27.94007812 0.38085938 29.00390625 C0.41630859 29.99003906 0.45175781 30.97617188 0.48828125 31.9921875 C0.51446533 32.90339355 0.54064941 33.81459961 0.56762695 34.75341797 C0.71031006 35.49479004 0.85299316 36.23616211 1 37 C4.6441774 39.4294516 6.71241272 39.16179575 11 39 C11.33 40.98 11.66 42.96 12 45 C6.96096545 46.67967818 1.94859377 46.87064828 -2.9375 44.6875 C-5 43 -5 43 -7 40 C-7.22705078 37.36450195 -7.22705078 37.36450195 -7.1953125 34.23828125 C-7.18886719 33.12001953 -7.18242187 32.00175781 -7.17578125 30.84960938 C-7.15902344 29.68236328 -7.14226562 28.51511719 -7.125 27.3125 C-7.11597656 26.13365234 -7.10695312 24.95480469 -7.09765625 23.74023438 C-7.07406423 20.82661974 -7.0411454 17.91341108 -7 15 C-8.32 15 -9.64 15 -11 15 C-11 13.02 -11 11.04 -11 9 C-9.68 9 -8.36 9 -7 9 C-7 6.69 -7 4.38 -7 2 C-4.35261084 0.5393715 -3.10551666 0 0 0 Z " fill="#292929" transform="translate(253,36)"/>
<path d="M0 0 C0.33 2.31 0.66 4.62 1 7 C0.45730469 7.29132813 -0.08539063 7.58265625 -0.64453125 7.8828125 C-5.35775874 10.58336447 -8.23968961 12.60171481 -10 18 C-9.67 18.99 -9.34 19.98 -9 21 C-5.81944427 20.69220428 -4.40292951 20.46477873 -2.26953125 18.00390625 C-1.78871094 17.19824219 -1.30789063 16.39257812 -0.8125 15.5625 C0.70134152 13.07404811 1.93497891 11.06502109 4 9 C7 8.75 7 8.75 10 9 C12 11 12 11 12.125 14.125 C12.08375 15.07375 12.0425 16.0225 12 17 C14.97 17 17.94 17 21 17 C21 17.33 21 17.66 21 18 C16.38 18.66 11.76 19.32 7 20 C7 18.68 7 17.36 7 16 C6.54109375 16.68707031 6.0821875 17.37414062 5.609375 18.08203125 C4.99578125 18.98308594 4.3821875 19.88414062 3.75 20.8125 C3.14671875 21.70582031 2.5434375 22.59914063 1.921875 23.51953125 C-1.15238406 27.48732496 -2.89977742 28.8602892 -7.9375 29.5 C-11.18946005 29.34803925 -12.11648366 28.92477097 -15 27.0625 C-17.7315658 22.87978986 -17.8531198 19.85872037 -17 15 C-15.02128905 8.24042843 -10.83840366 4.6521616 -5 1 C-3 0 -3 0 0 0 Z " fill="#292929" transform="translate(386,342)"/>
<path d="M0 0 C2.96175123 0.61277612 4.38058783 1.25372522 7 3 C5.33499048 7.99071507 2.47491574 12.04151146 -0.4453125 16.36328125 C-0.97518768 17.15526413 -1.50506287 17.94724701 -2.05099487 18.76322937 C-3.73800516 21.28258408 -5.43139681 23.79757378 -7.125 26.3125 C-8.27255953 28.02380422 -9.41969978 29.73538967 -10.56640625 31.44726562 C-13.37275629 35.63478476 -16.18483582 39.81840184 -19 44 C-23.75 42.125 -23.75 42.125 -26 41 C-24.33499048 36.00928493 -21.47491574 31.95848854 -18.5546875 27.63671875 C-18.02481232 26.84473587 -17.49493713 26.05275299 -16.94900513 25.23677063 C-15.26199484 22.71741592 -13.56860319 20.20242622 -11.875 17.6875 C-10.72744047 15.97619578 -9.58030022 14.26461033 -8.43359375 12.55273438 C-5.62724371 8.36521524 -2.81516418 4.18159816 0 0 Z " fill="#303030" transform="translate(368,68)"/>
<path d="M0 0 C4.75 0.875 4.75 0.875 7 2 C6.37812835 6.26058762 4.88340346 9.54653683 2.91015625 13.359375 C2.60556992 13.9492218 2.30098358 14.5390686 1.98716736 15.14678955 C1.34550645 16.38542429 0.70071906 17.62244388 0.05297852 18.85791016 C-0.93934688 20.75352805 -1.91848495 22.6555525 -2.89648438 24.55859375 C-3.52266202 25.76342418 -4.14958905 26.96786551 -4.77734375 28.171875 C-5.34702881 29.2659668 -5.91671387 30.36005859 -6.50366211 31.48730469 C-8 34 -8 34 -10 35 C-12.625 33.75 -12.625 33.75 -15 32 C-15 31.01 -15 30.02 -15 29 C-16.794375 29.12375 -16.794375 29.12375 -18.625 29.25 C-23.24934637 29.2829135 -25.44232818 27.84613746 -29 25 C-27.37660195 23.29115995 -25.70680947 21.62553283 -24 20 C-23.34 20 -22.68 20 -22 20 C-21.67 20.66 -21.34 21.32 -21 22 C-17.77164298 22.88046101 -15.52512427 23.11934643 -12.25 22.375 C-9.30595344 20.57586044 -9.2272264 19.22254204 -8 16 C-6.67216229 13.20553121 -5.27140207 10.44823129 -3.875 7.6875 C-3.50246094 6.94693359 -3.12992188 6.20636719 -2.74609375 5.44335938 C-1.83255194 3.62798783 -0.91652513 1.81386718 0 0 Z " fill="#343434" transform="translate(171,405)"/>
<path d="M0 0 C0.33 2.31 0.66 4.62 1 7 C0.38125 7.2475 -0.2375 7.495 -0.875 7.75 C-3.46561326 9.27389015 -4.12444207 10.13453767 -5 13 C-4.88297634 19.37778931 -1.12389576 23.50383005 2.5625 28.375 C3.17802734 29.20644531 3.79355469 30.03789063 4.42773438 30.89453125 C5.94214115 32.93721946 7.46628404 34.97179341 9 37 C7.25 39.0625 7.25 39.0625 5 41 C2.27014224 40.81890463 1.23150374 40.24359138 -0.65991211 38.25341797 C-1.19366455 37.50721191 -1.72741699 36.76100586 -2.27734375 35.9921875 C-2.87353516 35.16976562 -3.46972656 34.34734375 -4.08398438 33.5 C-4.69564453 32.63375 -5.30730469 31.7675 -5.9375 30.875 C-6.54529297 30.03195313 -7.15308594 29.18890625 -7.77929688 28.3203125 C-8.97213998 26.66294258 -10.15899124 25.00124123 -11.33935547 23.33496094 C-12.39900972 21.84502661 -13.46988315 20.36296533 -14.55517578 18.89160156 C-18 14.21032934 -18 14.21032934 -18 12 C-16.1875 10.3125 -16.1875 10.3125 -14 9 C-13.01 9.33 -12.02 9.66 -11 10 C-10.443125 8.906875 -9.88625 7.81375 -9.3125 6.6875 C-7.17989208 2.9383601 -4.61472715 0 0 0 Z " fill="#333333" transform="translate(138,78)"/>
<path d="M0 0 C2.97 11.55 5.94 23.1 9 35 C1 36 1 36 -1 36 C-1.721875 36.66 -2.44375 37.32 -3.1875 38 C-6.68663481 40.48827365 -8.79958306 40.32944447 -13 40 C-12.67 37.69 -12.34 35.38 -12 33 C-9.36 32.67 -6.72 32.34 -4 32 C-1.71777644 24.86805139 -3.53043608 18.31330312 -5.66601562 11.4296875 C-6.79077624 7.57787571 -7.17770804 4.8664377 -6 1 C-3.92446352 0.4465236 -2.15634036 0 0 0 Z " fill="#2A2A2A" transform="translate(303,415)"/>
<path d="M0 0 C2.475 2.475 2.475 2.475 5 5 C-0.29316474 7.82514696 -5.6004722 10.62150436 -10.92138672 13.39404297 C-13.0786871 14.5193976 -15.23377859 15.64899208 -17.38720703 16.78173828 C-20.89554802 18.6212468 -24.41506923 20.43764224 -27.9375 22.25 C-29.06849121 22.84707764 -30.19948242 23.44415527 -31.36474609 24.05932617 C-32.42902832 24.60177979 -33.49331055 25.1442334 -34.58984375 25.703125 C-35.53722412 26.19458008 -36.48460449 26.68603516 -37.46069336 27.19238281 C-40 28 -40 28 -42.33813477 27.14355469 C-43.16075806 26.57749512 -43.16075806 26.57749512 -44 26 C-44 24.68 -44 23.36 -44 22 C-29.48 14.74 -14.96 7.48 0 0 Z " fill="#3C3C3C" transform="translate(405,97)"/>
<path d="M0 0 C13 6.5 13 6.5 26 13 C26.99 12.01 27.98 11.02 29 10 C31.475 11.485 31.475 11.485 34 13 C32.35 16.3 30.7 19.6 29 23 C22.82430301 21.7648606 18.08117166 19.13058061 12.56933594 16.1628418 C10.74893131 15.18692708 8.9180997 14.23291424 7.0859375 13.27929688 C5.36503906 12.35793945 5.36503906 12.35793945 3.609375 11.41796875 C2.55717773 10.85875732 1.50498047 10.2995459 0.42089844 9.72338867 C-2 8 -2 8 -2.94042969 5.92700195 C-3.02558953 3.1722205 -1.78531363 1.99955127 0 0 Z " fill="#313131" transform="translate(401,332)"/>
<path d="M0 0 C1.45579387 4.33731423 2.89783961 8.67886847 4.32739258 13.02490234 C4.81550882 14.50238207 5.3073439 15.97863865 5.80297852 17.45361328 C6.51521906 19.57533287 7.21392084 21.70110784 7.91015625 23.828125 C8.13405533 24.48556702 8.35795441 25.14300903 8.58863831 25.82037354 C9.68295572 29.20982742 10.37296761 31.62153227 9 35 C6.03 35.495 6.03 35.495 3 36 C0.03 27.09 -2.94 18.18 -6 9 C-7.65 9 -9.3 9 -11 9 C-11.33 7.02 -11.66 5.04 -12 3 C-10.56445975 2.49440092 -9.1264798 1.9957251 -7.6875 1.5 C-6.88699219 1.2215625 -6.08648437 0.943125 -5.26171875 0.65625 C-3 0 -3 0 0 0 Z " fill="#303030" transform="translate(191,54)"/>
<path d="M0 0 C2.17186421 2.17186421 2.6793248 3.49976531 3.625 6.375 C3.88539062 7.14585937 4.14578125 7.91671875 4.4140625 8.7109375 C5 11 5 11 5 15 C3.02 15.33 1.04 15.66 -1 16 C-1.70365602 14.4447088 -2.38729378 12.88035173 -3.0625 11.3125 C-3.44535156 10.44238281 -3.82820313 9.57226562 -4.22265625 8.67578125 C-5.0935848 5.67786136 -4.85006226 3.96719847 -4 1 C-2.125 0.375 -2.125 0.375 0 0 Z " fill="#3B3B3B" transform="translate(68,302)"/>
<path d="M0 0 C0.625 2.8125 0.625 2.8125 1 6 C-1 9 -1 9 -2.8125 9.875 C-5.90541659 10.05173809 -7.51171611 8.72797493 -10 7 C-9.74438677 4.6568787 -9.40729228 2.32156597 -9 0 C-5.93109813 -1.53445094 -3.29905734 -0.54984289 0 0 Z " fill="#353535" transform="translate(102,160)"/>
<path d="M0 0 C3 0.25 3 0.25 5 2.25 C5.33333333 7.58333333 5.33333333 7.58333333 4 10.25 C1.00963556 11.30066859 -0.4009332 11.52524691 -3.3125 10.1875 C-5 8.25 -5 8.25 -5.375 5.1875 C-4.85657033 1.12646757 -4.08939484 0.3407829 0 0 Z " fill="#2E2E2E" transform="translate(281,73.75)"/>
<path d="M0 0 C0.99 0 1.98 0 3 0 C1.65216226 4.41110531 -0.02751203 6.61650722 -4 9 C-7.8125 9.25 -7.8125 9.25 -11 9 C-10.34 7.02 -9.68 5.04 -9 3 C-7.6078125 3.0928125 -7.6078125 3.0928125 -6.1875 3.1875 C-3.02209709 3.3314563 -3.02209709 3.3314563 -1.3125 1.5 C-0.6628125 0.7575 -0.6628125 0.7575 0 0 Z " fill="#2A2A2A" transform="translate(301,446)"/>
<path d="M0 0 C1.2684375 0.12375 1.2684375 0.12375 2.5625 0.25 C4.5625 3.25 4.5625 3.25 4.1875 5.9375 C3.98125 6.700625 3.775 7.46375 3.5625 8.25 C1.25 8.9375 1.25 8.9375 -1.4375 9.25 C-3.3125 8.125 -3.3125 8.125 -4.4375 6.25 C-3.88016338 0.39796547 -3.88016338 0.39796547 0 0 Z " fill="#4B4B4B" transform="translate(184.4375,41.75)"/>
<path d="M0 0 C2.5625 0.1875 2.5625 0.1875 4.5625 2.1875 C4.00694444 6.74305556 4.00694444 6.74305556 2.5625 8.1875 C0.125 8.375 0.125 8.375 -2.4375 8.1875 C-3.0975 7.5275 -3.7575 6.8675 -4.4375 6.1875 C-3.71780303 0.28598485 -3.71780303 0.28598485 0 0 Z " fill="#3F3F3F" transform="translate(438.4375,352.8125)"/>
<path d="M0 0 C0 0.33 0 0.66 0 1 C-0.94875 1.12375 -1.8975 1.2475 -2.875 1.375 C-6.08667191 1.71687177 -6.08667191 1.71687177 -8 4 C-8.66 4 -9.32 4 -10 4 C-11.69774938 5.29352333 -13.36739286 6.62517293 -15 8 C-14.76793596 4.75110346 -13.93662944 3.94435756 -11.4375 1.75 C-7.15178806 -0.43181699 -4.73731534 -0.3267114 0 0 Z " fill="#595959" transform="translate(61,258)"/>
<path d="M0 0 C0.33 0 0.66 0 1 0 C1 1.98 1 3.96 1 6 C3.97 6 6.94 6 10 6 C10 6.33 10 6.66 10 7 C5.38 7.66 0.76 8.32 -4 9 C-3.67 7.35 -3.34 5.7 -3 4 C-2.67 4.99 -2.34 5.98 -2 7 C-1.34 7 -0.68 7 0 7 C0 4.69 0 2.38 0 0 Z " fill="#666666" transform="translate(397,353)"/>
<path d="M0 0 C0.66 0.66 1.32 1.32 2 2 C-0.64 4.64 -3.28 7.28 -6 10 C-6.66 9.67 -7.32 9.34 -8 9 C-5.36 6.03 -2.72 3.06 0 0 Z " fill="#5A5A5A" transform="translate(447,170)"/>
<path d="M0 0 C0.33 0.66 0.66 1.32 1 2 C1.66 2.33 2.32 2.66 3 3 C-2.29230769 7.06153846 -2.29230769 7.06153846 -5.875 6.75 C-6.57625 6.5025 -7.2775 6.255 -8 6 C-8.33 6.66 -8.66 7.32 -9 8 C-9 7.01 -9 6.02 -9 5 C-6.36 4.67 -3.72 4.34 -1 4 C-0.67 2.68 -0.34 1.36 0 0 Z " fill="#7B7B7B" transform="translate(300,443)"/>
<path d="M0 0 C0.66 0.33 1.32 0.66 2 1 C-0.97 3.97 -3.94 6.94 -7 10 C-7 7 -7 7 -4.625 4.4375 C-3.75875 3.633125 -2.8925 2.82875 -2 2 C-1.34 1.34 -0.68 0.68 0 0 Z " fill="#737373" transform="translate(379,344)"/>
<path d="M0 0 C0.99 0.33 1.98 0.66 3 1 C2.38511719 1.59748047 2.38511719 1.59748047 1.7578125 2.20703125 C1.21898437 2.73683594 0.68015625 3.26664063 0.125 3.8125 C-0.40867187 4.33457031 -0.94234375 4.85664063 -1.4921875 5.39453125 C-3.20776561 7.13259904 -3.20776561 7.13259904 -5 10 C-4.49701212 5.59885603 -2.91227269 3.28804981 0 0 Z " fill="#5F5F5F" transform="translate(395,138)"/>
<path d="M0 0 C2.97 0.495 2.97 0.495 6 1 C3 3 3 3 1 4 C0.34 4.99 -0.32 5.98 -1 7 C-0.67 4.69 -0.34 2.38 0 0 Z " fill="#747474" transform="translate(212,76)"/>
</svg>
